<?xml version="1.0" encoding="UTF-8" standalone="no"?>
<svg
   version="1.1"
   id="Layer_1"
   x="0px"
   y="0px"
   width="456.435"
   viewBox="0 0 456.435 100"
   enable-background="new 0 0 212 211"
   xml:space="preserve"
   sodipodi:docname="bitwise-logo.svg"
   inkscape:version="1.3.2 (091e20e, 2023-11-25, custom)"
   height="100"
   xmlns:inkscape="http://www.inkscape.org/namespaces/inkscape"
   xmlns:sodipodi="http://sodipodi.sourceforge.net/DTD/sodipodi-0.dtd"
   xmlns="http://www.w3.org/2000/svg"
   xmlns:svg="http://www.w3.org/2000/svg"><defs
   id="defs3"><pattern
     patternUnits="userSpaceOnUse"
     width="153.07471"
     height="37.844272"
     patternTransform="matrix(0.26458333,0,0,0.26458333,2.0491322,-26.150018)"
     id="patt_AazizAndCo_Base"><g
       id="g_AazizAndCo_PatternBase"
       transform="matrix(3.7795276,0,0,3.7795276,-7.7447516,98.834714)"><rect
         style="fill:none"
         id="rect_AazizAndCo_PatternBase_Bound"
         width="40.5"
         height="10"
         x="2.0501485"
         y="-26.137054" /><g
         style="fill:#3aa5ca"
         id="txt_AazizAndCo_PatternBase"><path
           style="fill:#3aa5ca"
           inkscape:connector-curvature="0"
           d="M 5.0819708,-22.353858 H 3.6371129 l -0.2794301,1.117721 H 2.0491322 l 1.2881045,-4.368651 q 0.034077,-0.149938 0.1499381,-0.238538 0.1226766,-0.09541 0.2794301,-0.09541 h 1.1858739 q 0.1567535,0 0.2726147,0.09541 0.1226767,0.0886 0.1635689,0.238538 l 1.2812891,4.368651 H 5.3614009 Z m -0.2385378,-0.92689 -0.2998762,-1.20632 q -0.074969,-0.354399 -0.0886,-0.490706 H 4.2709421 q -0.047708,0.258984 -0.095415,0.490706 l -0.2998762,1.20632 z"
           id="txt_AazizAndCo_PatternBase_00" /><path
           style="fill:#3aa5ca"
           inkscape:connector-curvature="0"
           d="m 7.1127373,-23.744193 -0.1090458,-0.804213 q 0.8996285,-0.170384 1.85378,-0.170384 0.7156136,0 1.0631973,0.299876 0.3475842,0.293061 0.3475842,1.022305 v 2.160472 H 9.2868396 l -0.1158612,-0.497522 q -0.4907065,0.586121 -1.2063201,0.586121 -0.4975218,0 -0.8178441,-0.252168 -0.3203223,-0.258984 -0.3203223,-0.715614 v -0.340768 q 0,-0.402107 0.2862454,-0.633829 0.2930609,-0.231723 0.7973981,-0.231723 H 9.034671 v -0.08178 q -0.00682,-0.218092 -0.1090459,-0.299876 -0.095415,-0.0886 -0.3612144,-0.0886 -0.6610907,0 -1.4516734,0.04771 z m 0.92689,1.335812 v 0.115862 q 0,0.272614 0.3339531,0.272614 0.2998761,0 0.6610906,-0.231722 V -22.67418 H 8.3258728 q -0.2862455,0.0068 -0.2862455,0.265799 z"
           id="txt_AazizAndCo_PatternBase_01" /><path
           style="fill:#3aa5ca"
           inkscape:connector-curvature="0"
           d="m 13.996791,-22.067612 v 0.831475 H 10.82083 v -0.831475 l 1.703842,-1.724288 h -1.669765 v -0.831475 h 3.100992 v 0.831475 l -1.703842,1.724288 z"
           id="txt_AazizAndCo_PatternBase_02" /><path
           inkscape:connector-curvature="0"
           d="m 14.945512,-26.150018 h 0.538414 q 0.354399,0 0.354399,0.36803 v 0.354399 q 0,0.361215 -0.354399,0.361215 h -0.538414 q -0.361215,0 -0.361215,-0.361215 v -0.354399 q 0,-0.36803 0.361215,-0.36803 z m 0.885997,4.913881 h -1.233581 v -3.387238 h 1.233581 z"
           id="txt_AazizAndCo_PatternBase_03" /><path
           inkscape:connector-curvature="0"
           d="m 19.614145,-22.067612 v 0.831475 h -3.175962 v -0.831475 L 18.142025,-23.7919 H 16.47226 v -0.831475 h 3.100993 v 0.831475 l -1.703842,1.724288 z"
           id="txt_AazizAndCo_PatternBase_04" /><path
           inkscape:connector-curvature="0"
           d="m 26.177982,-22.11532 0.136308,0.811029 q -0.354399,0.156753 -0.954152,0.156753 -0.66109,0 -0.892813,-0.456629 -0.272615,0.245353 -0.599752,0.354399 -0.320323,0.10223 -0.838291,0.10223 -0.776951,0 -1.11772,-0.29306 -0.333953,-0.293061 -0.333953,-0.995044 0,-0.55886 0.218092,-0.865552 0.218092,-0.306691 0.715614,-0.354399 v -0.04089 q -0.415738,-0.04089 -0.599753,-0.299876 -0.184015,-0.258984 -0.184015,-0.783768 0,-0.333953 0.06815,-0.552044 0.06815,-0.224908 0.19083,-0.361215 0.129492,-0.143123 0.36803,-0.211276 0.238538,-0.07497 0.511153,-0.09541 0.27943,-0.02726 0.722429,-0.02726 0.681536,0 1.124535,0.0886 l -0.149938,0.845105 q -0.776952,-0.02045 -1.008674,-0.02045 -0.327138,0 -0.436184,0.102231 -0.10223,0.09541 -0.10223,0.429368 0,0.313507 0.09541,0.422553 0.10223,0.109046 0.395291,0.109046 h 0.899629 l 0.07497,-0.661091 h 1.049566 v 0.661091 h 0.654276 v 0.804213 h -0.654276 v 0.83829 q 0,0.163569 0.06134,0.231723 0.06134,0.06134 0.211276,0.06134 z m -1.812887,-1.131351 h -0.933706 q -0.306691,0 -0.402107,0.109046 -0.09541,0.109046 -0.09541,0.442999 0,0.340768 0.0886,0.45663 0.0886,0.109045 0.388476,0.10223 0.545229,-0.01363 0.954152,-0.19083 z"
           id="txt_AazizAndCo_PatternBase_05" /><path
           inkscape:connector-curvature="0"
           d="m 31.756788,-22.299335 0.102231,0.933706 q -0.613383,0.211276 -1.587981,0.211276 -1.131351,0 -1.594796,-0.545229 -0.463445,-0.54523 -0.463445,-1.887857 0,-1.342628 0.463445,-1.887857 0.463445,-0.54523 1.594796,-0.54523 0.858736,0 1.48575,0.170385 l -0.09541,0.94052 q -0.695167,-0.02045 -1.390335,-0.02045 -0.422553,0 -0.572491,0.27943 -0.143123,0.272615 -0.143123,1.063198 0,0.790582 0.143123,1.070012 0.149938,0.272615 0.572491,0.272615 0.988228,0 1.48575,-0.05452 z"
           id="txt_AazizAndCo_PatternBase_06" /><path
           inkscape:connector-curvature="0"
           d="m 34.051543,-24.71879 q 1.001859,0 1.410781,0.408922 0.415737,0.402106 0.415737,1.383519 0,0.974598 -0.415737,1.376705 -0.408922,0.395291 -1.410781,0.395291 -1.001859,0 -1.417597,-0.395291 -0.408922,-0.402107 -0.408922,-1.376705 0,-0.981413 0.415737,-1.383519 0.415738,-0.408922 1.410782,-0.408922 z m 0,0.872367 q -0.320323,0 -0.422553,0.184015 -0.102231,0.177199 -0.102231,0.736059 0,0.552045 0.102231,0.729245 0.10223,0.177199 0.422553,0.177199 0.313506,0 0.415737,-0.177199 0.109046,-0.1772 0.109046,-0.729245 0,-0.55886 -0.109046,-0.736059 -0.102231,-0.184015 -0.415737,-0.184015 z"
           id="txt_AazizAndCo_PatternBase_07" /><path
           inkscape:connector-curvature="0"
           d="m 36.809103,-22.39475 h 0.293061 q 0.245353,0 0.333953,0.09541 0.09541,0.0886 0.09541,0.333953 v 0.299876 q 0,0.245354 -0.09541,0.340769 -0.0886,0.0886 -0.333953,0.0886 h -0.293061 q -0.245353,0 -0.340768,-0.0886 -0.0886,-0.09542 -0.0886,-0.340769 v -0.299876 q 0,-0.245353 0.0886,-0.333953 0.09541,-0.09541 0.340768,-0.09541 z"
           id="txt_AazizAndCo_PatternBase_08" /></g></g></pattern><linearGradient
     id="lgrd_redVelvet"><stop
       offset="0"
       style="stop-color:#9b0000;stop-opacity:1"
       id="lgrd_redVelvet_st0" /><stop
       offset="1"
       style="stop-color:#690000;stop-opacity:1"
       id="lgrd_redVelvet_st1" /></linearGradient><radialGradient
     id="rgrd_blueMarble"
     cx="80"
     cy="80"
     r="95"
     fx="80"
     fy="80"
     gradientUnits="userSpaceOnUse"><stop
       offset="0"
       style="stop-color:#1cd7fb;stop-opacity:1"
       id="rgrd_blueMarble_st0" /><stop
       offset="0.45"
       style="stop-color:#1eadeb;stop-opacity:1"
       id="rgrd_blueMarble_st1" /><stop
       offset="0.60"
       style="stop-color:#0e8adc;stop-opacity:1"
       id="rgrd_blueMarble_st2" /><stop
       offset="0.77"
       style="stop-color:#065297;stop-opacity:1"
       id="rgrd_blueMarble_st3" /><stop
       offset="0.90"
       style="stop-color:#044374;stop-opacity:1"
       id="rgrd_blueMarble_st4" /><stop
       offset="1"
       style="stop-color:#043f74;stop-opacity:0"
       id="rgrd_blueMarble_st5" /></radialGradient><radialGradient
     id="rgrd_coolBlueTerra"
     cx="78.888542"
     cy="130.47983"
     r="98.141899"
     gradientTransform="scale(1.0136592,0.98652483)"
     fx="78.888542"
     fy="130.47983"
     gradientUnits="userSpaceOnUse"><stop
       offset="0"
       style="stop-color:#f7f7f7;stop-opacity:1"
       id="rgrd_coolBlueTerra_st0" /><stop
       style="stop-color:#9ed4e2;stop-opacity:1"
       offset="0.65"
       id="rgrd_coolBlueTerra_st1" /><stop
       offset="1"
       style="stop-color:#3aa5ca;stop-opacity:1"
       id="rgrd_coolBlueTerra_st2" /></radialGradient><radialGradient
     id="rgrd_deepBlueCoasts"
     cx="79.174591"
     cy="131.13831"
     r="96.762466"
     gradientTransform="scale(1.0141413,0.98605588)"
     fx="79.174591"
     fy="131.13831"
     gradientUnits="userSpaceOnUse"><stop
       id="rgrd_deepBlueCoasts_st0"
       style="stop-color:#0f75d2;stop-opacity:0.85"
       offset="0" /><stop
       id="rgrd_deepBlueCoasts_st1"
       style="stop-color:#032b51;stop-opacity:1"
       offset="1" /></radialGradient><radialGradient
     id="rgrd_dropShadow"
     cx="57.606583"
     cy="268.02493"
     r="77.76889"
     gradientTransform="scale(1.3887302,0.72008228)"
     fx="57.606583"
     fy="268.02493"
     gradientUnits="userSpaceOnUse"><stop
       id="rgrd_dropShadow_st0"
       style="stop-color:#000000;stop-opacity:0.75"
       offset="0" /><stop
       id="rgrd_dropShadow_st1"
       style="stop-color:#000000;stop-opacity:0"
       offset="1" /></radialGradient><filter
     height="1.1857375"
     y="-0.09286873"
     width="1.3393779"
     x="-0.16968894"
     id="filt_blurShadow"><feGaussianBlur
       id="fegb_blurShadow"
       stdDeviation="3.23" /></filter><filter
     x="-0.1104"
     width="1.2208"
     y="-0.24839999"
     height="1.4967999"
     id="filt_blurDropShadow"><feGaussianBlur
       stdDeviation="4.14"
       id="fegb_blurDropShadow" /></filter><linearGradient
     x1="0"
     y1="0"
     x2="1"
     y2="0"
     gradientUnits="userSpaceOnUse"
     gradientTransform="matrix(-47.303098,0,0,-47.303098,302.10835,228.09037)"
     spreadMethod="pad"
     id="linearGradient40"><stop
       style="stop-opacity:1;stop-color:#d2de26"
       offset="0"
       id="stop36" /><stop
       style="stop-opacity:1;stop-color:#7cc246"
       offset="1"
       id="stop38" /></linearGradient><filter
     inkscape:collect="always"
     style="color-interpolation-filters:sRGB"
     id="filter14"
     x="-0.053790142"
     y="-0.043335257"
     width="1.1075803"
     height="1.0866705"><feGaussianBlur
       inkscape:collect="always"
       stdDeviation="3.0052745"
       id="feGaussianBlur14" /></filter></defs><sodipodi:namedview
   id="namedview3"
   pagecolor="#505050"
   bordercolor="#eeeeee"
   borderopacity="1"
   inkscape:showpageshadow="0"
   inkscape:pageopacity="0"
   inkscape:pagecheckerboard="0"
   inkscape:deskcolor="#505050"
   showguides="true"
   inkscape:zoom="1.4142136"
   inkscape:cx="222.38508"
   inkscape:cy="-107.83378"
   inkscape:window-width="1920"
   inkscape:window-height="1017"
   inkscape:window-x="1432"
   inkscape:window-y="-8"
   inkscape:window-maximized="1"
   inkscape:current-layer="Layer_1" />



<text
   id="text5886"
   y="-828.11957"
   x="503.34985"
   style="font-style:normal;font-variant:normal;font-weight:normal;font-stretch:normal;font-size:26.6667px;line-height:125%;font-family:Arial;-inkscape-font-specification:Arial;letter-spacing:0px;word-spacing:0px;fill:#000000;fill-opacity:1;stroke:none;stroke-width:0.999999px;stroke-linecap:butt;stroke-linejoin:miter;stroke-opacity:1"
   xml:space="preserve" /><g
   id="g14"
   transform="matrix(0.55290192,0,0,0.55290192,-17.208306,-14.275046)"
   style="opacity:0.46247;fill:#ff4b0b;fill-opacity:1;filter:url(#filter14)"><path
     fill="#3B3B3B"
     opacity="1"
     stroke="none"
     d="m 139.73488,134.26578 c -0.28766,2.79802 -0.57533,5.59605 -0.86109,8.37553 -0.42486,0.0568 -0.94036,0.21793 -0.99551,0.11995 -4.5798,-8.13731 -11.75513,-10.21231 -20.65074,-9.91916 -13.81155,0.45516 -27.649835,0.18529 -41.474862,0.0399 -1.791657,-0.0188 -4.058136,-0.62297 -5.280602,-1.8069 -9.929039,-9.61608 -19.663349,-19.43328 -29.447818,-29.19841 -0.426216,-0.42537 -0.76339,-0.93997 -1.653729,-2.052228 2.496636,-0.11042 4.229481,-0.252731 5.962418,-0.253822 24.987739,-0.01572 49.9757,0.04944 74.963133,-0.03928 12.92851,-0.04591 20.99431,-6.590896 23.23598,-18.746917 0.86421,-4.686455 -0.26366,-9.042054 -2.78769,-12.932259 -0.48445,0.01842 -0.9689,0.03684 -1.45335,0.05527 -0.15058,2.714485 -0.30114,5.428978 -0.4517,8.143463 -0.30767,0.304902 -0.61535,0.609803 -0.92303,0.914704 -4.92709,-10.941315 -14.16496,-11.00512 -23.73511,-10.824364 -12.82246,0.242195 -25.654172,0.146835 -38.478665,-0.0342 -1.929734,-0.02724 -4.340775,-0.791054 -5.682259,-2.089272 -9.813503,-9.49707 -19.412689,-19.21566 -29.070114,-28.873737 -0.426212,-0.426243 -0.761318,-0.943596 -1.679127,-2.098107 2.041729,0 3.29644,-1.9e-5 4.551148,0 26.820179,4.08e-4 53.640445,-0.04089 80.460517,0.0135 24.61075,0.04991 46.959,21.952603 47.94165,46.511959 0.55101,13.7715 -3.447,25.82962 -12.50647,36.61241 5.88747,7.20195 9.9843,15.14709 11.80414,24.31868 5.71747,28.81463 -16.44882,57.64042 -45.83416,58.6544 -16.97176,0.58563 -33.978833,0.18051 -50.969647,0.1205 -1.368614,-0.005 -3.131584,-0.38828 -4.040901,-1.27965 -10.539677,-10.3318 -20.950153,-20.79541 -32.170784,-31.99876 2.547546,0 4.125873,0 5.704201,0 25.654083,4e-5 51.326454,-0.58181 76.955241,0.22337 14.83318,0.46602 28.91153,-16.06947 19.2383,-32.42706 -0.57626,-0.59075 -0.81084,-0.80997 -1.04539,-1.02918 0.12533,0.4999 0.25067,0.9998 0.37602,1.4997 z"
     id="path9"
     style="fill:#ff4b0b;fill-opacity:1" /><path
     fill="#fefefe"
     opacity="1"
     stroke="none"
     d="m 139.81189,134.18762 c -0.20236,-0.42174 -0.3277,-0.92164 -0.45303,-1.42154 0.23455,0.21921 0.46913,0.43843 0.69543,0.92392 -0.008,0.26627 -0.16539,0.41948 -0.2424,0.49762 z"
     id="path10"
     style="fill:#ff4b0b;fill-opacity:1" /><path
     id="path11"
     style="fill:#ff4b0b;fill-opacity:1"
     d="m 131.2168,33.652344 c -2.28029,-0.382553 -4.59612,-0.58901 -6.9336,-0.59375 -26.820046,-0.05439 -53.640782,-0.01131 -80.460934,-0.01172 -1.254707,-1.9e-5 -2.509055,0 -4.550782,0 0.917808,1.15451 1.251523,1.671414 1.677735,2.097656 9.657415,9.658068 19.256819,19.375987 29.070312,28.873047 1.341483,1.298217 3.753862,2.062607 5.683594,2.089844 12.82448,0.181037 25.656065,0.275398 38.478515,0.0332 2.826,-0.05338 5.60588,-0.04822 8.27148,0.214844 z" /><path
     id="path12"
     style="fill:#ff4b0b;fill-opacity:1"
     d="m 131.2168,33.652344 c -2.28029,-0.382553 -4.59612,-0.58901 -6.9336,-0.59375 -26.820046,-0.05439 -53.640782,-0.01131 -80.460934,-0.01172 -1.254707,-1.9e-5 -2.509055,0 -4.550782,0 0.917808,1.15451 1.251523,1.671414 1.677735,2.097656 9.657415,9.658068 19.256819,19.375987 29.070312,28.873047 1.341483,1.298217 3.753862,2.062607 5.683594,2.089844 12.82448,0.181037 25.656065,0.275398 38.478515,0.0332 2.826,-0.05338 5.60588,-0.04822 8.27148,0.214844 z" /><path
     id="path13"
     style="fill:#ff4b0b;fill-opacity:1"
     d="m 113.53646,99.632898 c -2.72135,-0.07482 -7.89189,-0.06543 -10.60623,-0.06177 -26.820076,0.03621 -32.562242,0.04264 -59.382394,0.04224 -1.254707,-2e-5 -2.071623,0.105352 -4.177307,0.211065 0.856406,1.096507 1.227517,1.625987 1.653729,2.052227 9.657415,9.65807 19.634325,19.70135 29.447818,29.19841 1.341483,1.29822 3.35087,1.77967 5.280602,1.8069 12.820751,0.1844 7.600009,0.17003 20.657815,0.20493 2.840461,0.008 5.493577,0.006 8.158997,0.0112 z"
     sodipodi:nodetypes="csscsscscc" /><path
     id="path14"
     style="fill:#ff4b0b;fill-opacity:1"
     d="m 95.840708,165.80782 c -2.72135,-0.0748 -7.958357,-0.01 -10.672697,-0.006 -26.820071,0.0362 -15.834508,0.2077 -42.65466,0.2073 -1.254707,-2e-5 -2.071623,0.10535 -4.177307,0.21106 0.856406,1.09651 1.227517,1.62599 1.653729,2.05223 9.657415,9.65807 19.634325,19.70135 29.447818,29.19841 1.341483,1.29822 3.35087,1.77931 5.280602,1.80654 12.820751,0.1844 -9.138687,0.10543 3.919119,0.14033 2.840461,0.008 5.51266,-0.0651 8.17807,-0.0599 z"
     sodipodi:nodetypes="csscsscscc" /></g><g
   id="g7"
   transform="matrix(0.55290192,0,0,0.55290192,-16.975046,-14.275046)"><path
     fill="#3B3B3B"
     opacity="1"
     stroke="none"
     d="m 139.73488,134.26578 c -0.28766,2.79802 -0.57533,5.59605 -0.86109,8.37553 -0.42486,0.0568 -0.94036,0.21793 -0.99551,0.11995 -4.5798,-8.13731 -11.75513,-10.21231 -20.65074,-9.91916 -13.81155,0.45516 -27.649835,0.18529 -41.474862,0.0399 -1.791657,-0.0188 -4.058136,-0.62297 -5.280602,-1.8069 -9.929039,-9.61608 -19.663349,-19.43328 -29.447818,-29.19841 -0.426216,-0.42537 -0.76339,-0.93997 -1.653729,-2.052228 2.496636,-0.11042 4.229481,-0.252731 5.962418,-0.253822 24.987739,-0.01572 49.9757,0.04944 74.963133,-0.03928 12.92851,-0.04591 20.99431,-6.590896 23.23598,-18.746917 0.86421,-4.686455 -0.26366,-9.042054 -2.78769,-12.932259 -0.48445,0.01842 -0.9689,0.03684 -1.45335,0.05527 -0.15058,2.714485 -0.30114,5.428978 -0.4517,8.143463 -0.30767,0.304902 -0.61535,0.609803 -0.92303,0.914704 -4.92709,-10.941315 -14.16496,-11.00512 -23.73511,-10.824364 -12.82246,0.242195 -25.654172,0.146835 -38.478665,-0.0342 -1.929734,-0.02724 -4.340775,-0.791054 -5.682259,-2.089272 -9.813503,-9.49707 -19.412689,-19.21566 -29.070114,-28.873737 -0.426212,-0.426243 -0.761318,-0.943596 -1.679127,-2.098107 2.041729,0 3.29644,-1.9e-5 4.551148,0 26.820179,4.08e-4 53.640445,-0.04089 80.460517,0.0135 24.61075,0.04991 46.959,21.952603 47.94165,46.511959 0.55101,13.7715 -3.447,25.82962 -12.50647,36.61241 5.88747,7.20195 9.9843,15.14709 11.80414,24.31868 5.71747,28.81463 -16.44882,57.64042 -45.83416,58.6544 -16.97176,0.58563 -33.978833,0.18051 -50.969647,0.1205 -1.368614,-0.005 -3.131584,-0.38828 -4.040901,-1.27965 -10.539677,-10.3318 -20.950153,-20.79541 -32.170784,-31.99876 2.547546,0 4.125873,0 5.704201,0 25.654083,4e-5 51.326454,-0.58181 76.955241,0.22337 14.83318,0.46602 28.91153,-16.06947 19.2383,-32.42706 -0.57626,-0.59075 -0.81084,-0.80997 -1.04539,-1.02918 0.12533,0.4999 0.25067,0.9998 0.37602,1.4997 z"
     id="path2"
     style="fill:#1b1a17;fill-opacity:1" /><path
     fill="#fefefe"
     opacity="1"
     stroke="none"
     d="m 139.81189,134.18762 c -0.20236,-0.42174 -0.3277,-0.92164 -0.45303,-1.42154 0.23455,0.21921 0.46913,0.43843 0.69543,0.92392 -0.008,0.26627 -0.16539,0.41948 -0.2424,0.49762 z"
     id="path3" /><path
     id="path4"
     style="fill:#ff4b0b;fill-opacity:1"
     d="m 131.2168,33.652344 c -2.28029,-0.382553 -4.59612,-0.58901 -6.9336,-0.59375 -26.820046,-0.05439 -53.640782,-0.01131 -80.460934,-0.01172 -1.254707,-1.9e-5 -2.509055,0 -4.550782,0 0.917808,1.15451 1.251523,1.671414 1.677735,2.097656 9.657415,9.658068 19.256819,19.375987 29.070312,28.873047 1.341483,1.298217 3.753862,2.062607 5.683594,2.089844 12.82448,0.181037 25.656065,0.275398 38.478515,0.0332 2.826,-0.05338 5.60588,-0.04822 8.27148,0.214844 z" /><path
     id="path5"
     style="fill:#ff4b0b;fill-opacity:1"
     d="m 131.2168,33.652344 c -2.28029,-0.382553 -4.59612,-0.58901 -6.9336,-0.59375 -26.820046,-0.05439 -53.640782,-0.01131 -80.460934,-0.01172 -1.254707,-1.9e-5 -2.509055,0 -4.550782,0 0.917808,1.15451 1.251523,1.671414 1.677735,2.097656 9.657415,9.658068 19.256819,19.375987 29.070312,28.873047 1.341483,1.298217 3.753862,2.062607 5.683594,2.089844 12.82448,0.181037 25.656065,0.275398 38.478515,0.0332 2.826,-0.05338 5.60588,-0.04822 8.27148,0.214844 z" /><path
     id="path6"
     style="fill:#ff4b0b;fill-opacity:1"
     d="m 113.53646,99.632898 c -2.72135,-0.07482 -7.89189,-0.06543 -10.60623,-0.06177 -26.820076,0.03621 -32.562242,0.04264 -59.382394,0.04224 -1.254707,-2e-5 -2.071623,0.105352 -4.177307,0.211065 0.856406,1.096507 1.227517,1.625987 1.653729,2.052227 9.657415,9.65807 19.634325,19.70135 29.447818,29.19841 1.341483,1.29822 3.35087,1.77967 5.280602,1.8069 12.820751,0.1844 7.600009,0.17003 20.657815,0.20493 2.840461,0.008 5.493577,0.006 8.158997,0.0112 z"
     sodipodi:nodetypes="csscsscscc" /><path
     id="path7"
     style="fill:#ff4b0b;fill-opacity:1"
     d="m 95.840708,165.80782 c -2.72135,-0.0748 -7.958357,-0.01 -10.672697,-0.006 -26.820071,0.0362 -15.834508,0.2077 -42.65466,0.2073 -1.254707,-2e-5 -2.071623,0.10535 -4.177307,0.21106 0.856406,1.09651 1.227517,1.62599 1.653729,2.05223 9.657415,9.65807 19.634325,19.70135 29.447818,29.19841 1.341483,1.29822 3.35087,1.77931 5.280602,1.80654 12.820751,0.1844 -9.138687,0.10543 3.919119,0.14033 2.840461,0.008 5.51266,-0.0651 8.17807,-0.0599 z"
     sodipodi:nodetypes="csscsscscc" /></g><g
   id="g1"
   transform="translate(0,-2.9432621)"><path
     style="font-size:59.3097px;font-family:NoirStd-SemiBoldItalic;-inkscape-font-specification:NoirStd-SemiBoldItalic;text-align:center;letter-spacing:0px;word-spacing:-1.50822px;text-anchor:middle;fill:#ff4b0b;stroke-width:2.73878;stroke-linecap:round;stroke-linejoin:round"
     d="m 118.76652,33.466762 q 3.2169,1.072295 4.58705,3.455179 1.42973,2.382883 1.07229,5.540195 -0.71485,5.301906 -4.82532,8.697518 -4.0509,3.33603 -10.36554,3.33603 H 90.529387 l 4.88491,-40.032396 h 15.250433 q 7.20822,0 10.90168,2.561598 3.75304,2.502024 3.09774,7.923078 -0.29786,2.561596 -2.02545,5.06362 -1.66801,2.502026 -3.87218,3.455178 z m -14.83342,-10.425103 -0.83401,6.672066 h 5.71891 q 5.71891,0 6.13592,-3.395605 0.23829,-1.787161 -1.13187,-2.502025 -1.31059,-0.774436 -4.17004,-0.774436 z m 3.81261,22.875651 q 6.73163,0 7.14863,-3.87218 0.23829,-1.906304 -1.42972,-2.799879 -1.60844,-0.953157 -4.76577,-0.953157 h -6.67206 l -0.95315,7.625216 z m 29.96472,8.578374 h -9.53153 l 4.88491,-40.032396 h 9.53152 z m 10.60382,-40.032396 h 30.50088 l -1.01273,8.578371 h -10.48468 l -3.87218,31.454025 h -9.53152 l 3.87218,-31.454025 h -10.48468 z m 67.19724,0 4.11047,24.901108 11.13997,-24.901108 h 10.48467 l -19.42047,40.032396 h -8.57837 l -4.22962,-22.041647 -9.59109,22.041647 h -8.57837 l -9.65067,-40.032396 h 10.48468 l 5.06361,24.901108 10.18682,-24.901108 z m 34.67094,40.032396 h -9.53153 l 4.88491,-40.032396 h 9.53152 z m 25.97339,-25.198963 q 3.87218,0.834008 6.37421,1.727588 2.50203,0.89358 4.64662,2.38288 2.20416,1.429729 3.03817,3.693469 0.89358,2.263738 0.53615,5.361478 -0.71487,5.718912 -5.59977,9.352804 -4.82534,3.633891 -12.68884,3.633891 -2.85945,0 -5.5402,-0.714858 -2.68074,-0.655295 -4.4679,-1.608442 -1.78716,-1.01273 -3.21689,-1.965877 -1.37015,-1.012729 -1.96587,-1.668025 l -0.6553,-0.714857 5.24234,-7.625217 q 5.06362,5.718913 11.61655,5.718913 7.20821,0 7.62521,-3.812609 0.17872,-1.489308 -1.13187,-2.382882 -1.31058,-0.953157 -5.00405,-1.608443 -7.98265,-1.370163 -11.43782,-4.408332 -3.39561,-3.038173 -2.79989,-8.161366 0.71487,-5.480626 5.48062,-9.233663 4.76577,-3.753037 11.97398,-3.753037 1.42973,0 3.21689,0.238288 1.84674,0.178716 5.24234,1.429729 3.3956,1.251013 5.48062,3.455176 l -5.12319,7.506075 q -0.11914,-0.178716 -0.417,-0.417004 -0.23829,-0.297861 -1.13187,-0.953152 -0.89358,-0.714865 -1.96588,-1.251013 -1.0723,-0.536148 -2.79988,-0.953152 -1.72759,-0.476576 -3.6339,-0.476576 -2.62117,0 -4.52747,0.89358 -1.90631,0.89358 -2.08502,2.502024 -0.17872,1.429729 1.01273,2.263737 1.25101,0.774437 4.70618,1.548873 z m 48.43209,-6.255062 h -16.20359 l -0.89357,7.148641 h 13.34413 l -1.07231,8.578373 h -13.34412 l -0.89358,7.148637 h 16.20358 l -1.01272,8.578374 h -25.73511 l 4.8849,-40.032396 h 25.73511 z"
     id="text7"
     aria-label="BITWISE" /><path
     style="font-size:24.0564px;font-family:NoirStd-LightItalic;-inkscape-font-specification:NoirStd-LightItalic;text-align:center;letter-spacing:0px;word-spacing:-4px;text-anchor:middle;fill:#1b1a17;stroke-width:1.11087;stroke-linecap:round;stroke-linejoin:round"
     d="m 111.21273,69.760018 h 1.73972 l -8.79526,16.624001 -2.89953,-12.661302 -5.99237,12.661302 -4.735913,-16.624001 h 1.73972 l 3.455285,12.371355 6.064858,-12.757958 2.9237,12.757958 z m 11.09075,10.39 q -0.0483,0.483258 -0.16914,0.821538 h -9.5443 q -0.0241,1.643075 1.11149,2.657903 1.13565,1.014839 2.99618,1.014839 2.078,0 3.86605,-1.256463 l 0.41077,1.401441 q -0.28995,0.241634 -0.77321,0.507425 -0.45909,0.26579 -1.54642,0.579903 -1.06316,0.314113 -2.19881,0.314113 -2.77873,0 -4.22849,-1.715554 -1.42561,-1.73972 -1.13566,-4.276812 0.31412,-2.585424 2.10217,-4.276822 1.81221,-1.715554 4.42179,-1.715554 2.36795,0 3.69691,1.618908 1.32895,1.594742 0.99067,4.325135 z m -9.52014,-0.724882 h 8.04621 q 0.0966,-1.401441 -0.77321,-2.537091 -0.84569,-1.135651 -2.70623,-1.135651 -1.90886,0 -3.14116,1.135651 -1.20814,1.13565 -1.42561,2.537091 z m 14.76347,-10.438323 -0.91819,7.466297 q 1.93303,-2.247135 4.73591,-2.247135 2.48877,0 4.01103,1.763887 1.54642,1.73972 1.2323,4.228489 -0.31412,2.488759 -2.27131,4.252646 -1.95718,1.73972 -4.44595,1.73972 -1.37728,0 -2.46461,-0.604069 -1.08732,-0.60407 -1.71555,-1.643065 l -0.24163,2.053833 h -1.54642 l 2.078,-17.010603 z m 2.53709,15.657485 q 1.86054,0 3.3103,-1.304785 1.44978,-1.304796 1.66724,-3.141162 0.24163,-1.836376 -0.89402,-3.141171 -1.13565,-1.304786 -2.99619,-1.304786 -1.83637,0 -3.3103,1.304786 -1.44977,1.280629 -1.6914,3.141171 -0.21747,1.860533 0.91818,3.165318 1.15982,1.280629 2.99619,1.280629 z m 27.49059,-6.378979 -4.22849,4.180167 3.31029,3.55193 h -2.24713 l -2.22298,-2.392113 q -2.82705,2.585414 -5.50912,2.585414 -2.078,0 -3.26197,-1.280629 -1.18398,-1.304785 -0.96652,-3.165328 0.36245,-2.94786 3.98687,-4.373457 -2.19882,-2.198822 -2.00552,-3.841887 0.21747,-1.715565 1.57058,-2.827049 1.37729,-1.13565 3.52778,-1.13565 2.00551,0 3.09283,1.159817 1.08732,1.159807 0.89402,2.875371 -0.0966,0.724882 -0.48325,1.377274 -0.38661,0.652403 -0.82153,1.063162 -0.41077,0.386612 -1.13566,0.797381 -0.72488,0.410759 -1.08732,0.555737 -0.33828,0.144978 -0.99068,0.410769 l 3.35863,3.600263 3.18949,-3.141172 z m -9.56848,-1.522253 q 0.9182,-0.362446 1.20814,-0.483258 0.28996,-0.144978 0.94235,-0.483258 0.67656,-0.338279 0.94235,-0.604069 0.26579,-0.265791 0.53158,-0.67656 0.26579,-0.434925 0.33828,-0.942339 0.12082,-1.063171 -0.60407,-1.739731 -0.72488,-0.700715 -2.02967,-0.700715 -1.47393,0 -2.34379,0.652393 -0.86986,0.628236 -0.99068,1.667231 -0.0483,0.289957 0.0483,0.628236 0.0966,0.33828 0.1933,0.579904 0.12082,0.241634 0.41077,0.628236 0.31412,0.362446 0.43493,0.507414 0.12081,0.144979 0.48326,0.531581 0.3866,0.386613 0.43492,0.434935 z m -1.08732,7.901232 q 2.02967,0 4.27682,-2.126323 l -3.7694,-4.083511 q -1.25646,0.483258 -2.2713,1.304786 -1.01484,0.797371 -1.13565,1.933031 -0.14498,1.159807 0.67656,2.078 0.84569,0.894017 2.22297,0.894017 z m 33.04805,-7.152183 q -0.0241,0.07252 -0.0483,0.193301 0,0.120812 0,0.193301 -0.41077,3.479441 -2.97203,5.895721 -2.56125,2.416279 -5.96821,2.416279 -3.43112,0 -5.58161,-2.416279 -2.12632,-2.440436 -1.71555,-5.895721 0.41077,-3.431118 3.14116,-5.871554 2.7304,-2.440446 6.18568,-2.440446 2.39211,0 4.10767,1.232306 1.71556,1.20814 2.51293,3.310296 l -1.6189,0.434935 q -0.60407,-1.570586 -1.98135,-2.488769 -1.35312,-0.942349 -3.21365,-0.942349 -2.80289,0 -5.02587,1.981344 -2.22297,1.981355 -2.56125,4.784237 -0.33828,2.802882 1.40144,4.784237 1.73972,1.981344 4.5426,1.981344 2.46461,0 4.37347,-1.570576 1.90886,-1.594752 2.58542,-4.035188 h -6.86223 l 0.1933,-1.546419 z m 4.32516,-0.60407 q 0.74905,-1.232306 2.22298,-1.957188 1.47393,-0.724882 3.14116,-0.724882 l -0.21746,1.763887 q -1.25647,-0.289957 -2.44045,0.09662 -1.20814,0.410769 -2.078,1.570586 -0.84569,1.135651 -1.06316,2.802882 l -0.67656,5.557441 h -1.54642 l 1.42561,-11.59814 h 1.54642 z m 17.44557,9.109371 h -1.54642 q -0.33828,-0.579903 -0.14498,-2.029677 -1.90886,2.222978 -4.71174,2.222978 -2.48877,0 -4.03519,-1.73972 -1.54642,-1.763887 -1.23231,-4.252646 0.31413,-2.488769 2.27131,-4.228489 1.98135,-1.763887 4.47012,-1.763887 2.80288,0 4.156,2.247135 l 0.26579,-2.053834 h 1.54642 l -1.13565,9.278516 q -0.21747,1.739721 0.0966,2.319624 z m -6.20984,-1.353118 q 1.86053,0 3.3103,-1.304785 1.44977,-1.304796 1.66724,-3.141162 0.24162,-1.836376 -0.89403,-3.141171 -1.13565,-1.304786 -2.99618,-1.304786 -1.83638,0 -3.31031,1.304786 -1.44976,1.280629 -1.6914,3.141171 -0.21746,1.860533 0.91819,3.165318 1.15981,1.280629 2.99619,1.280629 z m 12.08141,-10.245022 -0.26579,2.053834 q 1.93303,-2.247135 4.73591,-2.247135 2.48877,0 4.01102,1.763887 1.54642,1.73972 1.23231,4.228489 -0.31413,2.488759 -2.2713,4.252646 -1.95719,1.73972 -4.44596,1.73972 -1.37728,0 -2.4646,-0.604069 -1.08733,-0.60407 -1.71557,-1.643065 l -1.01484,8.239511 h -1.54642 l 2.19882,-17.783818 z m 3.18949,10.245022 q 1.86053,0 3.31031,-1.304785 1.44976,-1.304796 1.66723,-3.141162 0.24162,-1.836376 -0.89403,-3.141171 -1.13565,-1.304786 -2.99618,-1.304786 -1.83638,0 -3.31031,1.304786 -1.44976,1.280629 -1.6914,3.141171 -0.21746,1.860533 0.9182,3.165318 1.1598,1.280629 2.99618,1.280629 z m 18.67784,-0.966506 q -0.21746,1.739721 0.0966,2.319624 h -1.54642 q -0.31411,-0.579903 -0.0966,-2.319624 l 0.55574,-4.542612 q 0.38661,-3.382786 -2.68207,-3.382786 -1.44976,0 -2.77871,0.966506 -1.32896,0.966516 -1.52227,2.512935 l -0.82153,6.765581 h -1.54642 l 2.07801,-17.010603 h 1.54641 l -0.86986,7.200506 q 0.57991,-0.773204 1.73973,-1.377274 1.1598,-0.60407 2.31962,-0.60407 2.44045,0 3.3828,1.353118 0.9665,1.328952 0.65239,3.962699 z m 6.04074,-11.59815 q -0.43493,0.386612 -0.99068,0.386612 -0.55573,0 -0.91818,-0.386612 -0.33828,-0.410759 -0.28996,-0.966506 0.0725,-0.555747 0.50743,-0.94235 0.45909,-0.410768 1.01484,-0.410768 0.55573,0 0.89401,0.410768 0.36245,0.386603 0.28996,0.94235 -0.0483,0.555747 -0.50742,0.966506 z m -0.4591,2.319634 -1.13565,9.278516 q -0.21745,1.739721 0.0966,2.319624 h -1.54642 q -0.31411,-0.579903 -0.0966,-2.319624 l 1.13565,-9.278516 z m 10.60745,9.085215 0.45909,1.401441 q -1.57057,1.304785 -3.93853,1.304785 -2.87537,0 -4.37347,-1.715554 -1.47393,-1.715564 -1.15981,-4.276812 0.31412,-2.561258 2.22297,-4.276822 1.93303,-1.715554 4.78424,-1.715554 2.29547,0 3.64859,1.20814 l -0.86987,1.401441 q -1.06317,-1.063162 -2.99619,-1.063162 -2.10216,0 -3.55193,1.280629 -1.44976,1.280629 -1.6914,3.165328 -0.21746,1.908855 0.89403,3.189484 1.13565,1.256463 3.26197,1.256463 1.83638,0 3.31031,-1.159807 z m 13.21038,-13.724473 q 3.91438,0 5.82323,2.295467 1.90887,2.295468 1.47393,5.823232 -0.43492,3.503608 -2.94786,5.823232 -2.48877,2.295467 -6.33064,2.295467 h -4.47013 l 1.98136,-16.237398 z m -1.64306,14.690979 q 3.02035,0 5.02586,-1.836366 2.02966,-1.836376 2.36794,-4.735914 0.33828,-2.899538 -1.23229,-4.735904 -1.54642,-1.836376 -4.56677,-1.836376 h -3.06867 l -1.59476,13.14456 z m 21.79483,-4.300979 q -0.0483,0.483258 -0.16914,0.821538 h -9.54431 q -0.0242,1.643075 1.11149,2.657903 1.13565,1.014839 2.99619,1.014839 2.078,0 3.86605,-1.256463 l 0.41076,1.401441 q -0.28995,0.241634 -0.77321,0.507425 -0.45909,0.26579 -1.54642,0.579903 -1.06316,0.314113 -2.19881,0.314113 -2.77872,0 -4.22849,-1.715554 -1.42561,-1.73972 -1.13565,-4.276812 0.31411,-2.585424 2.10216,-4.276822 1.81221,-1.715554 4.42179,-1.715554 2.36796,0 3.69691,1.618908 1.32896,1.594742 0.99068,4.325135 z m -9.52014,-0.724882 h 8.04621 q 0.0966,-1.401441 -0.77322,-2.537091 -0.84569,-1.135651 -2.70623,-1.135651 -1.90886,0 -3.14116,1.135651 -1.20814,1.13565 -1.4256,2.537091 z m 16.57569,-0.193301 q 2.15049,0.459092 2.87537,1.328952 0.74905,0.86986 0.57991,2.198812 -0.16914,1.401441 -1.44977,2.41628 -1.25646,1.014838 -3.23781,1.014838 -1.54642,0 -2.75456,-0.555737 -1.20814,-0.555747 -1.66723,-1.087328 l 0.84569,-1.401441 q 0.55575,0.67656 1.59475,1.087318 1.039,0.386613 2.12633,0.410769 1.11148,0.02421 1.98134,-0.434925 0.89403,-0.483258 1.01484,-1.377285 0.0966,-0.845694 -0.60407,-1.328951 -0.67656,-0.483258 -1.81221,-0.724882 -2.44044,-0.483258 -3.23781,-1.256463 -0.79738,-0.773215 -0.6524,-2.102167 0.1933,-1.449763 1.47393,-2.319634 1.28063,-0.894016 3.23782,-0.894016 2.02967,0 3.67274,1.111484 l -0.74904,1.401441 q -0.36245,-0.314113 -1.28063,-0.628226 -0.91819,-0.314124 -1.81221,-0.33828 -2.77872,-0.07252 -2.99619,1.691398 -0.0483,0.386602 0.1933,0.700715 0.24163,0.314114 0.74905,0.531581 0.50742,0.193301 0.89402,0.314123 0.41077,0.120812 1.01484,0.241624 z m 9.01273,-7.152193 q -0.43493,0.386612 -0.99067,0.386612 -0.55575,0 -0.91819,-0.386612 -0.33828,-0.410759 -0.28995,-0.966506 0.0725,-0.555747 0.50741,-0.94235 0.4591,-0.410768 1.01484,-0.410768 0.55575,0 0.89403,0.410768 0.36244,0.386603 0.28995,0.94235 -0.0483,0.555747 -0.50742,0.966506 z m -0.45909,2.319634 -1.13565,9.278516 q -0.21747,1.739721 0.0966,2.319624 h -1.54642 q -0.31412,-0.579903 -0.0966,-2.319624 l 1.13565,-9.278516 z m 12.95128,0 h 1.54642 l -1.35312,10.873258 q -0.43494,3.551931 -2.24715,5.315818 -1.78804,1.788043 -4.71174,1.788043 -3.117,0 -5.26749,-1.933022 l 0.94235,-1.353118 q 1.93302,1.739721 4.51844,1.739721 2.12633,0 3.47945,-1.304786 1.37727,-1.280629 1.71555,-3.914376 l 0.1933,-1.667231 q -1.93302,2.247134 -4.71174,2.247134 -2.48877,0 -4.03518,-1.73972 -1.54642,-1.763887 -1.23231,-4.252646 0.31411,-2.488769 2.2713,-4.228489 1.98136,-1.763887 4.47012,-1.763887 2.80289,0 4.15601,2.247135 z m -5.70242,10.245022 q 1.86053,0 3.31029,-1.304785 1.44978,-1.304796 1.66723,-3.141162 0.24164,-1.836376 -0.89401,-3.141171 -1.13565,-1.304786 -2.9962,-1.304786 -1.83636,0 -3.31029,1.304786 -1.44978,1.280629 -1.6914,3.141171 -0.21747,1.860533 0.91818,3.165318 1.15982,1.280629 2.9962,1.280629 z m 19.45106,-0.966506 q -0.21747,1.739721 0.0966,2.319624 h -1.54642 q -0.31412,-0.579903 -0.0966,-2.319624 l 0.55574,-4.542612 q 0.38661,-3.382786 -2.68207,-3.382786 -1.44977,0 -2.77872,0.966506 -1.32895,0.966516 -1.52225,2.512935 l -0.82154,6.765581 h -1.54642 l 1.42561,-11.59814 h 1.54642 l -0.21747,1.788043 q 0.5799,-0.773204 1.73972,-1.377274 1.15982,-0.60407 2.31963,-0.60407 2.44044,0 3.38279,1.353118 0.96651,1.328952 0.65239,3.962699 z m 13.94195,-3.527774 q -0.0483,0.483258 -0.16914,0.821538 h -9.5443 q -0.0242,1.643075 1.11148,2.657903 1.13565,1.014839 2.99619,1.014839 2.078,0 3.86605,-1.256463 l 0.41077,1.401441 q -0.28996,0.241634 -0.77321,0.507425 -0.4591,0.26579 -1.54642,0.579903 -1.06317,0.314113 -2.19882,0.314113 -2.77872,0 -4.22849,-1.715554 -1.4256,-1.73972 -1.13565,-4.276812 0.31412,-2.585424 2.10217,-4.276822 1.81221,-1.715554 4.42179,-1.715554 2.36795,0 3.69691,1.618908 1.32895,1.594742 0.99067,4.325135 z m -9.52014,-0.724882 h 8.04621 q 0.0966,-1.401441 -0.77321,-2.537091 -0.8457,-1.135651 -2.70623,-1.135651 -1.90887,0 -3.14117,1.135651 -1.20814,1.13565 -1.4256,2.537091 z m 13.79696,-2.537091 q 0.74905,-1.232306 2.22298,-1.957188 1.47393,-0.724882 3.14116,-0.724882 l -0.21747,1.763887 q -1.25646,-0.289957 -2.44044,0.09662 -1.20814,0.410769 -2.078,1.570586 -0.8457,1.135651 -1.06317,2.802882 l -0.67655,5.557441 h -1.54642 l 1.4256,-11.59814 h 1.54642 z m 10.72162,15.295049 h -1.15982 l 3.04452,-24.7427 h 1.15982 z m 9.51346,-6.185678 h -1.54642 l 1.98136,-16.237398 h 1.54642 z m 4.68758,-16.237398 h 10.05172 l -0.1933,1.546419 h -4.25265 l -1.78805,14.690979 h -1.54642 l 1.78805,-14.690979 h -4.25266 z m 25.17098,1.546419 h -7.3455 l -0.70071,5.799075 h 6.18568 l -0.19331,1.54642 h -6.18567 l -0.70073,5.799065 h 7.3455 l -0.19331,1.546419 h -8.89191 l 1.98136,-16.237398 h 8.8919 z m 7.24884,8.529468 3.72107,6.161511 h -1.8847 l -2.9237,-4.905048 -4.13183,4.905048 h -1.8847 l 5.21916,-6.161511 -3.43112,-5.436629 h 1.8847 l 2.63375,4.349301 3.6969,-4.349301 h 1.8847 z m 8.81943,-5.436629 -0.26579,2.053834 q 1.93302,-2.247135 4.73591,-2.247135 2.48876,0 4.01102,1.763887 1.54642,1.73972 1.2323,4.228489 -0.31411,2.488759 -2.2713,4.252646 -1.95719,1.73972 -4.44595,1.73972 -1.37728,0 -2.46461,-0.604069 -1.08733,-0.60407 -1.71556,-1.643065 l -1.01484,8.239511 h -1.54641 l 2.19881,-17.783818 z m 3.18949,10.245022 q 1.86053,0 3.3103,-1.304785 1.44977,-1.304796 1.66723,-3.141162 0.24163,-1.836376 -0.89402,-3.141171 -1.13565,-1.304786 -2.99619,-1.304786 -1.83637,0 -3.3103,1.304786 -1.44977,1.280629 -1.69139,3.141171 -0.21747,1.860533 0.91818,3.165318 1.15982,1.280629 2.99619,1.280629 z m 19.6685,-4.49428 q -0.0483,0.483258 -0.16913,0.821538 h -9.54431 q -0.0242,1.643075 1.11149,2.657903 1.13565,1.014839 2.99619,1.014839 2.078,0 3.86604,-1.256463 l 0.41077,1.401441 q -0.28996,0.241634 -0.7732,0.507425 -0.4591,0.26579 -1.54642,0.579903 -1.06317,0.314113 -2.19882,0.314113 -2.77872,0 -4.22849,-1.715554 -1.4256,-1.73972 -1.13565,-4.276812 0.31412,-2.585424 2.10216,-4.276822 1.81221,-1.715554 4.42179,-1.715554 2.36796,0 3.69691,1.618908 1.32895,1.594742 0.99067,4.325135 z m -9.52014,-0.724882 h 8.04621 q 0.0966,-1.401441 -0.7732,-2.537091 -0.84571,-1.135651 -2.70624,-1.135651 -1.90886,0 -3.14116,1.135651 -1.20814,1.13565 -1.42561,2.537091 z m 13.79697,-2.537091 q 0.74904,-1.232306 2.22297,-1.957188 1.47393,-0.724882 3.14117,-0.724882 l -0.21747,1.763887 q -1.25646,-0.289957 -2.44045,0.09662 -1.20814,0.410769 -2.078,1.570586 -0.84569,1.135651 -1.06316,2.802882 l -0.67656,5.557441 h -1.54642 l 1.42561,-11.59814 h 1.54642 z m 8.04622,5.315817 0.7732,-6.258167 h -1.54642 l 0.1933,-1.546419 h 1.54642 l 0.55575,-4.639258 h 1.54642 l -0.55575,4.639258 h 2.31963 l -0.19331,1.546419 h -2.31962 l -0.79737,6.378979 q -0.1933,1.667231 0.21747,2.005511 0.72488,0.579903 1.86053,0.04831 l -0.1933,1.570585 q -0.67656,0.241624 -1.35312,0.241624 -1.03901,0 -1.57059,-0.53158 -0.53158,-0.555747 -0.5799,-1.425608 -0.0242,-0.894016 0.0966,-2.029667 z m 11.54982,-2.972027 q 2.15049,0.459092 2.87537,1.328952 0.74905,0.86986 0.57991,2.198812 -0.16914,1.401441 -1.44977,2.41628 -1.25647,1.014838 -3.23781,1.014838 -1.54642,0 -2.75456,-0.555737 -1.20814,-0.555747 -1.66723,-1.087328 l 0.84569,-1.401441 q 0.55575,0.67656 1.59474,1.087318 1.03901,0.386613 2.12634,0.410769 1.11148,0.02421 1.98134,-0.434925 0.89403,-0.483258 1.01484,-1.377285 0.0966,-0.845694 -0.60407,-1.328951 -0.67656,-0.483258 -1.81221,-0.724882 -2.44045,-0.483258 -3.23782,-1.256463 -0.79737,-0.773215 -0.65239,-2.102167 0.1933,-1.449763 1.47393,-2.319634 1.28063,-0.894016 3.23782,-0.894016 2.02967,0 3.67274,1.111484 l -0.74905,1.401441 q -0.36244,-0.314113 -1.28063,-0.628226 -0.91818,-0.314124 -1.81221,-0.33828 -2.77871,-0.07252 -2.99618,1.691398 -0.0483,0.386602 0.1933,0.700715 0.24163,0.314114 0.74905,0.531581 0.50741,0.193301 0.89402,0.314123 0.41077,0.120812 1.01484,0.241624 z"
     id="text8"
     aria-label="Web &amp; Graphic Designer | IT Experts" /></g></svg>
